<svg xmlns="http://www.w3.org/2000/svg" width="800" height="600" viewBox="0 0 800 600">
  <defs>
    <linearGradient id="bg-gradient" x1="0%" y1="0%" x2="100%" y2="100%">
      <stop offset="0%" style="stop-color:#FF4E00" />
      <stop offset="100%" style="stop-color:#8B0000" />
    </linearGradient>
    <filter id="matrix-effect">
      <feTurbulence type="fractalNoise" baseFrequency="0.01" numOctaves="2" result="noise" />
      <feDisplacementMap in="SourceGraphic" in2="noise" scale="5" />
    </filter>
    <mask id="fade-mask">
      <rect width="800" height="600" fill="url(#fade-gradient)" />
    </mask>
    <linearGradient id="fade-gradient" x1="0%" y1="0%" x2="0%" y2="100%">
      <stop offset="0%" style="stop-color:white;stop-opacity:0.9" />
      <stop offset="100%" style="stop-color:white;stop-opacity:0.6" />
    </linearGradient>
  </defs>

  <!-- 背景渐变 -->
  <rect width="800" height="600" fill="url(#bg-gradient)" />

  <!-- 网格纹理 -->
  <path d="M0 50 L800 50 M0 150 L800 150 M0 250 L800 250 M0 350 L800 350 M0 450 L800 450 M0 550 L800 550 M50 0 L50 600 M150 0 L150 600 M250 0 L250 600 M350 0 L350 600 M450 0 L450 600 M550 0 L550 600 M650 0 L650 600 M750 0 L750 600" stroke="rgba(255,255,255,0.1)" stroke-width="1" />

  <!-- 数字雨效果 -->
  <g filter="url(#matrix-effect)" opacity="0.15">
    <g>
      <!-- 左侧密集列 -->
      <text x="15" y="-50" fill="white" font-family="monospace" class="matrix-rain">
        <animate attributeName="y" from="-50" to="650" dur="7.5s" repeatCount="indefinite" />
        10110101
      </text>
      <text x="15" y="-150" fill="white" font-family="monospace" class="matrix-rain">
        <animate attributeName="y" from="-150" to="650" dur="8.4s" repeatCount="indefinite" />
        01001011
      </text>
      <text x="15" y="-250" fill="white" font-family="monospace" class="matrix-rain">
        <animate attributeName="y" from="-250" to="650" dur="7.8s" repeatCount="indefinite" />
        11010010
      </text>
      <text x="15" y="-350" fill="white" font-family="monospace" class="matrix-rain">
        <animate attributeName="y" from="-350" to="650" dur="8.1s" repeatCount="indefinite" />
        10101011
      </text>
      <text x="15" y="-450" fill="white" font-family="monospace" class="matrix-rain">
        <animate attributeName="y" from="-450" to="650" dur="7.7s" repeatCount="indefinite" />
        01011010
      </text>
      <text x="15" y="-550" fill="white" font-family="monospace" class="matrix-rain">
        <animate attributeName="y" from="-550" to="650" dur="8.2s" repeatCount="indefinite" />
        11001101
      </text>
      <text x="45" y="-100" fill="white" font-family="monospace" class="matrix-rain">
        <animate attributeName="y" from="-100" to="650" dur="9s" repeatCount="indefinite" />
        11100101
      </text>
      <text x="45" y="-200" fill="white" font-family="monospace" class="matrix-rain">
        <animate attributeName="y" from="-200" to="650" dur="5.2s" repeatCount="indefinite" />
        00110110
      </text>
      <text x="45" y="-300" fill="white" font-family="monospace" class="matrix-rain">
        <animate attributeName="y" from="-300" to="650" dur="5.8s" repeatCount="indefinite" />
        10101011
      </text>
      <!-- 中间密集列 -->
      <text x="75" y="-75" fill="white" font-family="monospace" class="matrix-rain">
        <animate attributeName="y" from="-75" to="650" dur="8.1s" repeatCount="indefinite" />
        10011010
      </text>
      <text x="75" y="-175" fill="white" font-family="monospace" class="matrix-rain">
        <animate attributeName="y" from="-175" to="650" dur="9.3s" repeatCount="indefinite" />
        01101001
      </text>
      <text x="75" y="-275" fill="white" font-family="monospace" class="matrix-rain">
        <animate attributeName="y" from="-275" to="650" dur="8.4s" repeatCount="indefinite" />
        11001101
      </text>
      <text x="75" y="-375" fill="white" font-family="monospace" class="matrix-rain">
        <animate attributeName="y" from="-375" to="650" dur="8.7s" repeatCount="indefinite" />
        10110011
      </text>
      <text x="75" y="-475" fill="white" font-family="monospace" class="matrix-rain">
        <animate attributeName="y" from="-475" to="650" dur="9.1s" repeatCount="indefinite" />
        01011100
      </text>
      <text x="75" y="-575" fill="white" font-family="monospace" class="matrix-rain">
        <animate attributeName="y" from="-575" to="650" dur="8.9s" repeatCount="indefinite" />
        11010101
      </text>
      <text x="105" y="-125" fill="white" font-family="monospace" class="matrix-rain">
        <animate attributeName="y" from="-125" to="650" dur="2.9s" repeatCount="indefinite" />
        11010110
      </text>
      <!-- 更多密集列 -->
      <text x="135" y="-150" fill="white" font-family="monospace" class="matrix-rain">
        <animate attributeName="y" from="-150" to="650" dur="3.6s" repeatCount="indefinite" />
        00101101
      </text>
      <text x="165" y="-80" fill="white" font-family="monospace" class="matrix-rain">
        <animate attributeName="y" from="-80" to="650" dur="2.8s" repeatCount="indefinite" />
        10110010
      </text>
      <!-- 中部列 -->
      <text x="195" y="-180" fill="white" font-family="monospace" class="matrix-rain">
        <animate attributeName="y" from="-180" to="650" dur="6.0s" repeatCount="indefinite" />
        01011001
      </text>
      <text x="195" y="-280" fill="white" font-family="monospace" class="matrix-rain">
        <animate attributeName="y" from="-280" to="650" dur="5.8s" repeatCount="indefinite" />
        10110010
      </text>
      <text x="195" y="-380" fill="white" font-family="monospace" class="matrix-rain">
        <animate attributeName="y" from="-380" to="650" dur="6.2s" repeatCount="indefinite" />
        11001010
      </text>
      <text x="225" y="-150" fill="white" font-family="monospace" class="matrix-rain">
        <animate attributeName="y" from="-150" to="650" dur="5.0s" repeatCount="indefinite" />
        11001010
      </text>
      <text x="225" y="-250" fill="white" font-family="monospace" class="matrix-rain">
        <animate attributeName="y" from="-250" to="650" dur="5.2s" repeatCount="indefinite" />
        01110011
      </text>
      <text x="225" y="-350" fill="white" font-family="monospace" class="matrix-rain">
        <animate attributeName="y" from="-350" to="650" dur="5.4s" repeatCount="indefinite" />
        10010110
      </text>
      <!-- 右侧密集列 -->
      <text x="255" y="-200" fill="white" font-family="monospace" class="matrix-rain">
        <animate attributeName="y" from="-200" to="650" dur="5.4s" repeatCount="indefinite" />
        01110011
      </text>
      <text x="255" y="-300" fill="white" font-family="monospace" class="matrix-rain">
        <animate attributeName="y" from="-300" to="650" dur="5.6s" repeatCount="indefinite" />
        10010110
      </text>
      <text x="255" y="-400" fill="white" font-family="monospace" class="matrix-rain">
        <animate attributeName="y" from="-400" to="650" dur="5.8s" repeatCount="indefinite" />
        01101100
      </text>
      <text x="315" y="-175" fill="white" font-family="monospace" class="matrix-rain">
        <animate attributeName="y" from="-175" to="650" dur="2.6s" repeatCount="indefinite" />
        01101100
      </text>
      <!-- 更多右侧列 -->
      <text x="345" y="-125" fill="white" font-family="monospace" class="matrix-rain">
        <animate attributeName="y" from="-125" to="650" dur="2.8s" repeatCount="indefinite" />
        11010011
      </text>
      <text x="375" y="-225" fill="white" font-family="monospace" class="matrix-rain">
        <animate attributeName="y" from="-225" to="650" dur="3.0s" repeatCount="indefinite" />
        00111010
      </text>
      <!-- 最右侧列 -->
      <text x="405" y="-150" fill="white" font-family="monospace" class="matrix-rain">
        <animate attributeName="y" from="-150" to="650" dur="5.4s" repeatCount="indefinite" />
        10101101
      </text>
      <text x="435" y="-100" fill="white" font-family="monospace" class="matrix-rain">
        <animate attributeName="y" from="-100" to="650" dur="5.0s" repeatCount="indefinite" />
        01011010
      </text>
      <!-- 新增更多列以提高密度 -->
      <text x="465" y="-180" fill="white" font-family="monospace" class="matrix-rain">
        <animate attributeName="y" from="-180" to="650" dur="5.6s" repeatCount="indefinite" />
        11001100
      </text>
      <text x="495" y="-120" fill="white" font-family="monospace" class="matrix-rain">
        <animate attributeName="y" from="-120" to="650" dur="5.2s" repeatCount="indefinite" />
        01110110
      </text>
      <text x="525" y="-200" fill="white" font-family="monospace" class="matrix-rain">
        <animate attributeName="y" from="-200" to="650" dur="6.0s" repeatCount="indefinite" />
        10011011
      </text>
      <text x="555" y="-150" fill="white" font-family="monospace" class="matrix-rain">
        <animate attributeName="y" from="-150" to="650" dur="5.4s" repeatCount="indefinite" />
        11100010
      </text>
      <text x="585" y="-90" fill="white" font-family="monospace" class="matrix-rain">
        <animate attributeName="y" from="-90" to="650" dur="5.8s" repeatCount="indefinite" />
        01001101
      </text>
      <text x="615" y="-170" fill="white" font-family="monospace" class="matrix-rain">
        <animate attributeName="y" from="-170" to="650" dur="5.0s" repeatCount="indefinite" />
        10110011
      </text>
      <text x="645" y="-130" fill="white" font-family="monospace" class="matrix-rain">
        <animate attributeName="y" from="-130" to="650" dur="5.6s" repeatCount="indefinite" />
        11001101
      </text>
      <text x="675" y="-210" fill="white" font-family="monospace" class="matrix-rain">
        <animate attributeName="y" from="-210" to="650" dur="6.2s" repeatCount="indefinite" />
        01110010
      </text>
      <text x="705" y="-160" fill="white" font-family="monospace" class="matrix-rain">
        <animate attributeName="y" from="-160" to="650" dur="5.2s" repeatCount="indefinite" />
        10011100
      </text>
      <text x="735" y="-140" fill="white" font-family="monospace" class="matrix-rain">
        <animate attributeName="y" from="-140" to="650" dur="5.8s" repeatCount="indefinite" />
        11010101
      </text>
      <text x="765" y="-190" fill="white" font-family="monospace" class="matrix-rain">
        <animate attributeName="y" from="-190" to="650" dur="5.4s" repeatCount="indefinite" />
        01101011
      </text>
    </g>
  </g>

  <!-- 标题和 Slogan -->
  <g mask="url(#fade-mask)">
    <!-- Logo -->
    <g transform="translate(340, 120)">
        <path d="M24,0 L6.6633574,44.1877256 L48,48 L0,48 L24,0 Z M30.2485714,8.20738095 L44.4621429,39.8552381 L39.5442857,39.8552381 L36.42,32.6230952 L23.6721429,32.6230952 L20.355,39.8552381 L15.5142857,39.8552381 L30.2485714,8.20738095 Z M30.1714286,18.2745238 L25.5428571,28.3995238 L34.5878571,28.3995238 L30.1714286,18.2745238 Z M52.4824219,39.4 L52.4824219,27.7662109 L54.4863281,27.7662109 C57.4674479,27.7662109 59.836263,26.9992839 61.5927734,25.4654297 C63.3492839,23.9315755 64.2275391,21.8534505 64.2275391,19.2310547 C64.2275391,16.7818359 63.4049479,14.7531901 61.7597656,13.1451172 C60.8196615,12.2173828 59.7311198,11.5865234 58.4941406,11.2525391 C57.2695312,10.9185547 55.4573568,10.7515625 53.0576172,10.7515625 L53.0576172,10.7515625 L48.1591797,10.7515625 L48.1591797,39.4 L52.4824219,39.4 Z M54.0966797,23.7583984 L52.4824219,23.7583984 L52.4824219,14.7408203 L53.9111328,14.7408203 C58.0055339,14.7408203 60.0527344,16.2190104 60.0527344,19.1753906 C60.0527344,22.2307292 58.0673828,23.7583984 54.0966797,23.7583984 L54.0966797,23.7583984 Z M73.0039062,39.4 L73.0039062,10.7515625 L68.6806641,10.7515625 L68.6806641,39.4 L73.0039062,39.4 Z M93.0429688,39.9380859 C97.1497396,39.9380859 100.532878,38.4413411 103.192383,35.4478516 C104.367513,34.1119141 105.202474,32.6770182 105.697266,31.1431641 C106.204427,29.485612 106.458008,27.5806641 106.458008,25.4283203 L106.458008,25.4283203 L106.458008,24.4820312 L94.6201172,24.4820312 L94.6201172,28.5455078 L101.763672,28.5455078 C101.565755,30.5617839 100.619466,32.2935547 98.9248047,33.7408203 C97.2301432,35.1757161 95.3190104,35.8931641 93.1914062,35.8931641 C90.6927083,35.8931641 88.3733724,34.9345052 86.2333984,33.0171875 C83.944987,30.9514323 82.8007812,28.3228516 82.8007812,25.1314453 C82.8007812,22.0389974 83.827474,19.4660807 85.8808594,17.4126953 C87.9342448,15.3222005 90.476237,14.2769531 93.5068359,14.2769531 C96.8837891,14.2769531 99.7473958,15.8417318 102.097656,18.9712891 L102.097656,18.9712891 L105.177734,16.0210937 C103.384115,13.9677083 101.55957,12.4833333 99.7041016,11.5679687 C97.7620443,10.6526042 95.6715495,10.1949219 93.4326172,10.1949219 C89.2639974,10.1949219 85.726237,11.6483724 82.8193359,14.5552734 C79.9124349,17.4498047 78.4589844,20.9751953 78.4589844,25.1314453 C78.4589844,29.2011068 79.8876953,32.689388 82.7451172,35.5962891 C85.6025391,38.4908203 89.0351562,39.9380859 93.0429688,39.9380859 Z M125.049805,39.9380859 C129.156576,39.9380859 132.539714,38.4413411 135.199219,35.4478516 C136.374349,34.1119141 137.20931,32.6770182 137.704102,31.1431641 C138.211263,29.485612 138.464844,27.5806641 138.464844,25.4283203 L138.464844,25.4283203 L138.464844,24.4820312 L126.626953,24.4820312 L126.626953,28.5455078 L133.770508,28.5455078 C133.572591,30.5617839 132.626302,32.2935547 130.931641,33.7408203 C129.236979,35.1757161 127.325846,35.8931641 125.198242,35.8931641 C122.699544,35.8931641 120.380208,34.9345052 118.240234,33.0171875 C115.951823,30.9514323 114.807617,28.3228516 114.807617,25.1314453 C114.807617,22.0389974 115.83431,19.4660807 117.887695,17.4126953 C119.941081,15.3222005 122.483073,14.2769531 125.513672,14.2769531 C128.890625,14.2769531 131.754232,15.8417318 134.104492,18.9712891 L134.104492,18.9712891 L137.18457,16.0210937 C135.390951,13.9677083 133.566406,12.4833333 131.710938,11.5679687 C129.76888,10.6526042 127.678385,10.1949219 125.439453,10.1949219 C121.270833,10.1949219 117.733073,11.6483724 114.826172,14.5552734 C111.919271,17.4498047 110.46582,20.9751953 110.46582,25.1314453 C110.46582,29.2011068 111.894531,32.689388 114.751953,35.5962891 C117.609375,38.4908203 121.041992,39.9380859 125.049805,39.9380859 Z" fill="white" fill-opacity="0.9"></path>
</g>
    <text x="400" y="250" fill="white" font-size="36" font-weight="bold" text-anchor="middle" font-family="'PingFang SC', -apple-system, sans-serif">SSO · 统一身份认证</text>
    <text x="400" y="300" fill="rgba(255,255,255,0.8)" font-size="18" text-anchor="middle" font-family="'PingFang SC', -apple-system, sans-serif">连接开发者，守护数字世界</text>
  </g>
</svg>